inDegrees=no
num_controls=7
num_derivatives=13
num_iterations=175
num_multipliers=7
num_parameters=0
num_slacks=7
num_states=26
objective=5.713635
objective_accelerations=0.648011
objective_balance=0.088926
objective_effort=0.504888
objective_height=4.389636
objective_ligament=0.082173
solver_duration=1967.251065
status=Solve_Succeeded
success=true
DataType=double
version=3
OpenSimVersion=4.4-2022-07-23-0e9fedc
endheader
time	/jointset/ground_pelvis/pelvis_tilt/value	/jointset/ground_pelvis/pelvis_tx/value	/jointset/ground_pelvis/pelvis_ty/value	/jointset/hip_l/hip_flexion_l/value	/jointset/hip_l/hip_adduction_l/value	/jointset/hip_l/hip_rotation_l/value	/jointset/back/lumbar_extension/value	/jointset/patellofemoral_l/patellar_flexion_l/value	/jointset/knee_l/knee_flexion_l/value	/jointset/knee_l/knee_adduction_l/value	/jointset/knee_l/knee_rotation_l/value	/jointset/ankle_l/ankle_angle_l/value	/jointset/subtalar_l/subtalar_angle_l/value	/jointset/ground_pelvis/pelvis_tilt/speed	/jointset/ground_pelvis/pelvis_tx/speed	/jointset/ground_pelvis/pelvis_ty/speed	/jointset/hip_l/hip_flexion_l/speed	/jointset/hip_l/hip_adduction_l/speed	/jointset/hip_l/hip_rotation_l/speed	/jointset/back/lumbar_extension/speed	/jointset/patellofemoral_l/patellar_flexion_l/speed	/jointset/knee_l/knee_flexion_l/speed	/jointset/knee_l/knee_adduction_l/speed	/jointset/knee_l/knee_rotation_l/speed	/jointset/ankle_l/ankle_angle_l/speed	/jointset/subtalar_l/subtalar_angle_l/speed	/forceset/tau_hip_flexion_l	/forceset/tau_hip_adduction_l	/forceset/tau_hip_rotation_l	/forceset/tau_knee_flexion_l	/forceset/tau_ankle_angle_l	/forceset/tau_subtalar_angle_l	/forceset/tau_lumbar_extension	lambda_cid13_p0	lambda_cid13_p1	lambda_cid13_p2	lambda_cid13_p3	lambda_cid13_p4	lambda_cid13_p5	lambda_cid14_p0	/jointset/ground_pelvis/pelvis_tilt/accel	/jointset/ground_pelvis/pelvis_tx/accel	/jointset/ground_pelvis/pelvis_ty/accel	/jointset/hip_l/hip_flexion_l/accel	/jointset/hip_l/hip_adduction_l/accel	/jointset/hip_l/hip_rotation_l/accel	/jointset/back/lumbar_extension/accel	/jointset/patellofemoral_l/patellar_flexion_l/accel	/jointset/knee_l/knee_flexion_l/accel	/jointset/knee_l/knee_adduction_l/accel	/jointset/knee_l/knee_rotation_l/accel	/jointset/ankle_l/ankle_angle_l/accel	/jointset/subtalar_l/subtalar_angle_l/accel	gamma_cid13_p0	gamma_cid13_p1	gamma_cid13_p2	gamma_cid13_p3	gamma_cid13_p4	gamma_cid13_p5	gamma_cid14_p0
1.5	-0.5181131051960348	-0.1057358623793458	0.7505680569749869	1.355735217018158	-0.3116040277216629	-0.06651522355260489	-0.3539148140868104	0.6442009217511994	0.6442009217515394	-0.1741496396474412	0.174518053913439	-0.03461867498358723	-0.06460797807535934	0.9236717077438141	0.3278579651727581	0.5214230840563641	-2.552200486079823	0.05217216478143669	-0.5544867891597641	0.5540862009614098	-1.622580426268598	-1.622580426268661	0.003052060511915649	1.14477679851753e-05	-0.06764509787512567	0.05540702700808855	-0.2870162067708819	0.01447520364514662	-0.01800470801882493	-0.1770420842586829	0.1727617090439548	0.04600543252824478	0.247407941043209	16.20335738685176	-25.0308314503686	6.116622807718543	-8.477559818346322	-612.3661772981314	-59.90306861271205	-30.81834387401778	0.7389781476559848	0.8148813221255929	-0.2369666326480664	-1.781434553883657	0.5146794662076859	-0.2342310411120501	1.926444990099392	-1.032889482767195	-1.032889482767174	0.02263145952389879	-0.03197477148865945	0.09592043022432324	0.5203368195030168	3.507590070880265e-09	9.125137085053653e-07	-1.773895414010071e-07	1.619902822097187e-07	1.921714087202379e-07	-1.538801746339285e-07	1.55804637675233e-07
1.51	-0.5088398905971013	-0.1024167525099499	0.7557694488396015	1.33012642845265	-0.3110575573836347	-0.07207221324778783	-0.3482791488030131	0.6279257788502089	0.6279257788503423	-0.1741193767568873	0.1745183015770049	-0.03529024098942837	-0.0640288696371781	0.9308415954715861	0.335931543600114	0.5187509828491542	-2.569211211793902	0.05712637122983089	-0.5568366461093796	0.5729825310136578	-1.632219207850564	-1.632219207850646	0.002998406351999284	3.565032192856182e-05	-0.06663556236270687	0.06042145774679469	-0.2777154829354744	0.01374829384724035	-0.01795375874398705	-0.1762689988892729	0.1716943356769757	0.04516533371594242	0.2404375774869754	16.1365819022106	-24.7775124515348	6.216992678147055	-8.35312597938286	-607.3737242865741	-60.19178491074351	-31.69045121645378	0.686563710190773	0.7987613432712001	-0.2979356266961792	-1.60897385147425	0.4863318460344597	-0.2240169489063915	1.861578295142007	-0.8950628014095541	-0.8950628014123635	-0.01949802955962903	0.01935471409599212	0.1083554151448817	0.4928781150119691	-2.81594636985049e-09	9.710418586892914e-07	-1.684829349501826e-07	1.705973412222644e-07	2.044025284082061e-07	-1.418970546042164e-07	1.592905692896801e-07
1.52	-0.4994988631959164	-0.09901787380823426	0.7609409989397561	1.304357916175738	-0.3104614368587474	-0.07765043229787169	-0.3424564499622226	0.6115611100722985	0.6115611100722278	-0.174089677243088	0.1745187386551528	-0.03595073457946647	-0.06339944050881823	0.9372342681934711	0.3438117316366863	0.515454731164385	-2.584145228360156	0.06210220215339427	-0.5587326601397987	0.5914929123600841	-1.64048560165246	-1.64048560165256	0.002939385159675142	4.933068627626123e-05	-0.06543061471451879	0.06547116504380419	-0.26841475910009	0.01302138404932934	-0.01790280946910834	-0.1754959135198668	0.1706269623099988	0.04432523490363583	0.2334672139307185	16.0613132207464	-24.52480216813986	6.319853435465774	-8.203074123896586	-602.5070799379912	-60.53067768974965	-32.54081647813668	0.5835351464786072	0.7762032439688547	-0.3617967281599465	-1.366092724318851	0.5190043612415451	-0.1434624572726813	1.849255248935031	-0.7584119267532178	-0.7584119267531817	0.0215580530423426	-0.03407920940791812	0.135002857378143	0.5273921311637065	-9.592225544607351e-09	1.026002046868357e-06	-1.60092647144012e-07	1.784167547620173e-07	2.160829158230667e-07	-1.282557664404586e-07	1.619912698259199e-07
1.53	-0.4900977866448579	-0.09554124470225431	0.7660765032027781	1.278450458253315	-0.3098155515854297	-0.08324549461590819	-0.3364508049615431	0.5951206857343757	0.5951206857342958	-0.1740606755416849	0.1745194101591211	-0.03659823582801035	-0.06271944005549238	0.9428458195171935	0.3514721502716305	0.5115445398165321	-2.596986461329983	0.06707171327882878	-0.5602042181261192	0.6095544750982703	-1.647362517950547	-1.647362517950473	0.002853942615059187	8.409395355444738e-05	-0.06403955292290722	0.07052800346014451	-0.2590205331423913	0.0121337482472603	-0.01788554186468354	-0.1746941228949431	0.1695400767191197	0.04335485557051547	0.2263542395323162	15.97754072136611	-24.21730665709477	6.417731750868357	-8.011523074317601	-597.6032673529602	-60.78144384167285	-33.36573773867682	0.5296917984049566	0.7547081074955085	-0.4208209580304709	-1.189140701484293	0.4853053485081146	-0.1374875644472934	1.772364884642162	-0.6168522556090874	-0.616852255583007	-0.0244472336871715	0.02222782007235377	0.145673683880417	0.4945358829321406	-1.684954387426694e-08	1.07717127541726e-06	-1.522509478977858e-07	1.853992949869278e-07	2.271781501977504e-07	-1.128526746342772e-07	1.638576623415647e-07
1.54	-0.4806446492459422	-0.09198926202307728	0.771169867428335	1.252425387577559	-0.3091200950287953	-0.08885296953283932	-0.3302669927138053	0.5786185880786221	0.5786185880785273	-0.174032698630826	0.1745204240408295	-0.03723092328987293	-0.06198892998079047	0.947646437764347	0.3588824462761024	0.5070267236713649	-2.607667779026605	0.0720164588168164	-0.5612151799178622	0.6271263617717242	-1.652820265219536	-1.652820265219288	0.002734427051499684	0.0001178062319000003	-0.06246785737818548	0.07557308931900308	-0.2496263071847167	0.01124611244517665	-0.01786827426029779	-0.1738923322700171	0.1684531911282379	0.04238447623738061	0.2192412651338941	15.88494775555898	-23.91013785381618	6.517799358311667	-7.789668076071225	-592.8271791733899	-61.08265765511646	-34.16160305833255	0.421348531164857	0.7261787178743569	-0.483321687622828	-0.9341096696780368	0.514051243752193	-0.05134321835707401	1.751320035988567	-0.4745781209334175	-0.4745781209334253	0.01474344925363476	-0.03428940719456936	0.1711296080001334	0.525041619667372	-2.439254429640528e-08	1.124491117775813e-06	-1.439627737014411e-07	1.914189166380909e-07	2.376875435745107e-07	-9.663995397193762e-08	1.649154865731719e-07
